# xmcd
#
# Track frame offsets:
#	150
#	18553
#	37697
#	56710
#	70856
#	90907
#	109777
#	126505
#	146787
#	165075
#	184152
#	202110
#	221357
#	234473
#	250325
#	269424
#
# Disc length: 3831 seconds
#
# Revision: 0
# Processed by: cddbd v1.5.2PL0 Copyright (c) Steve Scherf et al.
# Submitted via: EasyCDDAExtractor 16.0.6.1
#
DISCID=e20ef510
DTITLE=Μπέζος Κώστας ή Κωστής Α. - Το ρεμπέτικο τραγούδι στην Αμερική 1
DYEAR=2009
DGENRE=Ρεμπέτικη
TTITLE0=Δούσας Κώστας - Το καλογεράκι [1930, παραδοσιακό]
TTITLE1=Μπέζος Κώστας ή Κωστής Α. - Τουμπελέκι, τουμπελέκι [1931, Κ. Μπέζου-Τ.
TTITLE1=Δημητριάδη]
TTITLE2=Κατσαρός Γιώργος - Κακούργα Έλλη [1919, παραδοσιακό]
TTITLE3=Παπαγκίκα Μαρίκα - Ο λαγός [1923, παραδοσιακό]
TTITLE4=Καραπιπέρης Μανώλης - Αϊδίνικο ζεϊμπέκικο [1929, παραδοσιακό]
TTITLE5=Δούσας Κώστας - Η τσακπίνα [1930, Γ. Δραγάτση ή Ογδοντάκη]
TTITLE6=Μπέζος Κώστας ή Κωστής Α. - Γιάννης ο χασικλής [1930, παραδοσιακό]
TTITLE7=Κατσαρός Γιώργος - Ελληνική απόλαυσις [1919, παραδοσιακό]
TTITLE8=Χαλκιάς Ιωάννης ή Jack Gregory - Ραστ του τεκέ [1933, παραδοσιακό]
TTITLE9=Παπαγκίκα Μαρίκα - Το Μποχώρι 1929, παραδοσιακό]
TTITLE10=Δούσας Κώστας - Ο παραπονιάρης [1931, παραδοσιακό]
TTITLE11=Νικολάου Τάκης - Ο σφουγγαράς [1929, παραδοσιακό]
TTITLE12=Πιπεράκης Χαρίλαος - Ο κουμαρτζής [1939, παραδοσιακό]
TTITLE13=Κατσαρός Γιώργος - Στης Σύρας τον ανήφορο [1931, παραδοσιακό]
TTITLE14=Μπέζος Κώστας ή Κωστής Α. - Η φυλακή είναι σχολείο [1931, παραδοσιακό
TTITLE14=]
TTITLE15=Δούσας Κώστας - Το μωρό μου [1931, παραδοσιακό]
EXTD=
EXTT0=
EXTT1=
EXTT2=
EXTT3=
EXTT4=
EXTT5=
EXTT6=
EXTT7=
EXTT8=
EXTT9=
EXTT10=
EXTT11=
EXTT12=
EXTT13=
EXTT14=
EXTT15=
PLAYORDER=
